<svg width="60" height="212" viewBox="0 0 60 212" fill="none" xmlns="http://www.w3.org/2000/svg">
<path d="M31.868 19.2187C31.5701 14.6362 28.2159 11.1018 23.1839 10.2843C18.9703 9.59833 15.5033 9.02835 12.2071 6.33121C10.4147 4.86454 10.4837 1.73461 13.3283 1.61581C16.7452 1.47296 17.9276 3.26775 19.124 5.67213C20.195 7.82334 21.7741 9.25748 23.775 10.7482C26.5051 12.7806 27.9321 14.6235 29.8813 17.2202C31.4933 19.3672 34.3629 20.6486 36.4359 22.408C38.7097 24.3428 45.1844 29.8191 43.6932 33.1471C44.0773 33.0056 44.4615 32.8642 44.8441 32.7242C40.237 30.9138 37.888 27.0018 34.7612 23.6936C32.8011 21.6174 30.0569 18.3616 27.0728 20.592C23.6276 23.1675 23.2105 27.6863 20.4444 30.7285C17.6782 33.7708 13.7533 35.4751 12.2275 39.3588C12.1099 39.6573 12.3059 40.0009 12.5881 40.1579C14.8384 41.4153 16.0882 46.8534 19.56 43.3911C21.5342 41.4238 22.3214 37.7818 23.3924 35.3775C25.0734 31.6026 26.7544 27.8277 28.437 24.0529C28.8134 23.2085 27.297 22.8422 26.9254 23.6767C25.431 27.0329 23.935 30.3877 22.4406 33.7425C21.6001 35.6306 20.7721 37.5216 19.9175 39.4041C19.2071 40.974 19.3702 41.8834 17.3521 41.9273C15.1504 41.9754 16.3689 41.8919 15.4013 40.957C15.2916 40.8495 14.1061 39.4762 14.0794 39.339C13.863 38.2033 15.7181 36.7197 16.5821 35.9361C18.478 34.2135 20.7329 32.8543 22.3104 30.8516C23.8926 28.8432 24.581 26.4332 25.8888 24.299C26.6086 23.1293 27.791 21.0729 29.519 21.3133C30.7123 21.4816 32.2068 23.2297 33.0081 24.0246C36.5645 27.5477 38.9935 31.9576 44.0538 33.9447C44.5572 34.1428 44.9994 33.9815 45.2064 33.5219C46.4718 30.6988 43.5959 27.7853 41.7989 25.668C38.9747 22.3387 35.2771 20.2978 32.0735 17.4168C30.6214 16.1099 30.082 14.2388 28.7491 12.8329C27.5118 11.5289 25.9233 10.553 24.4823 9.44983C22.4892 7.92376 21.1892 6.40193 20.1762 4.21112C19.5898 2.94811 19.0785 1.60449 17.7551 0.803977C14.3868 -1.23408 5.84528 0.724774 9.07245 5.29874C10.7346 7.65503 13.8505 9.51489 16.6872 10.4993C19.135 11.3479 21.6753 11.2262 24.1498 11.9023C27.8458 12.9135 30.0788 15.8313 30.2999 19.2187C30.3595 20.1238 31.9276 20.1295 31.868 19.2187Z" fill="black"/>
<path d="M21.9836 42.3689C21.1807 44.1171 20.3668 46.5384 22.2454 48.0178C23.8041 49.2454 25.918 48.6104 27.0768 47.2498C28.877 45.1382 27.8812 41.8485 28.0647 39.4243C28.4128 34.8319 29.8288 30.4644 29.498 25.8297C29.4337 24.9259 27.8655 24.9188 27.9298 25.8297C28.1996 29.6059 27.3402 33.2266 26.7945 36.9478C26.553 38.5997 26.415 40.2404 26.437 41.9064C26.4621 43.8328 27.0768 43.7875 24.5756 44.704C22.8131 45.9076 22.2376 45.8553 22.8492 44.5456C22.9527 43.912 23.169 43.3123 23.4968 42.7451C23.881 41.905 22.3646 41.5387 21.9836 42.3689Z" fill="black"/>
<path d="M31.1345 27.8368C32.2745 30.6287 33.4396 33.4545 33.9728 36.4034C34.3758 38.6338 34.2378 40.5248 33.8724 42.7481C33.736 43.5769 33.4255 44.5076 33.5854 45.3576C34.1045 48.0703 36.7122 48.6077 39.1914 47.3575C43.0944 45.3901 42.0767 41.9349 41.0951 38.556C40.4051 36.1842 39.3655 33.8632 38.0247 31.7318C36.3578 29.0884 33.7532 26.9302 32.643 24.0251C32.3169 23.1694 30.8021 23.5372 31.1314 24.4013C32.2259 27.2682 34.6314 29.3558 36.3296 31.9298C38.2537 34.8505 40.9743 39.9124 40.449 43.468C40.1871 44.0833 39.9253 44.6985 39.6618 45.3137C38.2019 44.7438 36.7405 44.1752 35.2806 43.6052C35.0908 43.2092 35.6459 41.8345 35.7024 41.3974C35.8733 40.0892 35.8545 38.771 35.7071 37.4627C35.3166 34.0033 33.9696 30.6994 32.6477 27.4605C32.3012 26.6133 30.7848 26.9797 31.1345 27.8368Z" fill="black"/>
<path d="M25.2146 48.5973C25.3416 49.9099 25.4436 51.2224 25.5063 52.5377C25.5376 53.2095 25.2946 54.1783 25.7948 54.7299C26.7545 55.7893 28.9624 55.604 30.1761 55.1627C34.1277 53.7243 34.2249 49.5902 33.5397 46.3655C33.3484 45.4731 31.8383 45.8507 32.028 46.7417C32.4091 48.5379 32.6851 50.6764 31.5811 52.3255C30.5948 53.7993 28.4339 54.6295 26.7451 53.6197C26.8752 53.8233 27.0038 54.027 27.134 54.2292C27.0807 52.3482 26.9646 50.4728 26.7827 48.5973C26.6949 47.6978 25.1252 47.6893 25.2146 48.5973Z" fill="black"/>
<path d="M25.3081 54.5599C26.8809 60.3078 24.2731 65.7219 23.4185 71.3694C22.6188 76.6547 22.865 82.1325 22.7317 87.456C22.7097 88.3669 24.2778 88.3669 24.2998 87.456C24.4582 81.1919 24.132 74.7312 25.5684 68.5746C26.6974 63.7348 28.1683 59.1141 26.8197 54.1837C26.5782 53.2998 25.065 53.6746 25.3081 54.5599Z" fill="black"/>
<path d="M22.0796 95.7317V98.6254C22.0796 99.5363 23.6477 99.5377 23.6477 98.6254V95.7317C23.6477 94.8209 22.0796 94.8194 22.0796 95.7317Z" fill="black"/>
<path d="M20.89 111.846C20.5842 117.229 20.2753 122.611 19.9695 127.993C19.9178 128.904 21.4858 128.901 21.5376 127.993C21.8434 122.611 22.1523 117.229 22.458 111.846C22.5098 110.935 20.9417 110.938 20.89 111.846Z" fill="black"/>
<path d="M19.7477 144.736C19.9406 145.296 19.9265 145.805 19.6317 146.335C19.1785 147.147 20.5302 147.863 20.985 147.049C21.4632 146.191 21.5793 145.282 21.2609 144.359C20.9614 143.494 19.4482 143.863 19.7477 144.736Z" fill="black"/>
<path d="M24.5484 78.9634C24.7052 78.4076 27.7818 72.4659 28.5063 73.3358C28.7634 73.6441 29.1743 73.7968 29.5788 73.5903C34.0793 71.2864 37.4962 77.3666 41.8806 77.0795C43.9066 76.948 45.6064 75.7628 45.7821 73.8562C46.0047 71.4504 43.7623 69.6712 41.3208 69.2427C38.0466 68.6684 34.6375 70.2638 32.0047 71.8408C31.1689 72.3429 31.953 73.5691 32.7966 73.0628C34.0856 72.2891 38.4496 69.6627 39.9174 70.5467C40.0146 72.1873 40.1118 73.8279 40.2075 75.4686C39.4391 75.2211 38.7287 74.8802 38.0764 74.4503C37.2892 73.9963 36.5851 73.4305 35.7979 72.9765C33.5164 71.6598 31.2285 71.1195 28.7869 72.3683C29.146 72.4532 29.502 72.5381 29.8611 72.6229C27.1263 69.3445 23.4962 76.9565 23.0351 78.5872C22.7874 79.4697 24.299 79.8474 24.5484 78.9634Z" fill="black"/>
<path d="M36.4625 74.4505C31.2736 75.3189 28.5498 80.204 23.4346 81.1333C22.4467 81.3129 22.8654 82.6763 23.8518 82.4967C29.0077 81.5604 31.7409 76.6753 36.8812 75.8139C37.8707 75.6485 37.452 74.285 36.4625 74.4505Z" fill="black"/>
<path d="M25.2662 60.2904C25.9217 57.2906 24.7927 54.196 21.7725 52.5709C19.5034 51.3461 16.7279 51.472 14.3742 50.4423C12.0769 49.4367 10.5433 47.6773 7.97473 47.154C7.509 47.0607 6.94605 47.3563 6.98212 47.8357C7.23615 51.3037 8.72271 54.534 11.6206 56.8945C15.0688 59.7048 19.9754 60.132 23.5021 62.822C23.9616 63.1728 24.6155 63.0384 24.8115 62.5095C25.1706 61.5435 24.9887 60.9947 24.2752 60.2267C23.6715 59.579 22.6757 60.4049 23.0442 61.0838C23.6746 62.0823 23.9757 63.1558 23.9459 64.3043C23.9898 65.2109 25.5579 65.2165 25.514 64.3043C25.445 62.8645 25.1016 61.6665 24.3975 60.3696C23.9882 60.6553 23.5774 60.941 23.1665 61.2267C23.2104 61.5293 23.2559 61.832 23.2998 62.1333C23.7358 62.0286 24.1733 61.9253 24.6108 61.8221C22.0689 59.883 19.0785 59.1221 16.1304 57.845C11.6566 55.9088 8.87796 52.3163 8.55022 47.8357C8.21935 48.0634 7.88848 48.2911 7.55604 48.5188C10.5637 49.1298 12.4799 51.571 15.4609 52.3644C17.3112 52.8566 19.1036 52.9245 20.7924 53.8339C23.2324 55.1478 24.3144 57.3528 23.7546 59.9142C23.5601 60.8038 25.0718 61.1842 25.2662 60.2904Z" fill="black"/>
<path d="M8.68157 99.4477C8.3413 96.735 7.6184 89.7863 12.3541 89.3719C15.1798 89.1258 17.234 93.3801 18.9527 94.7436C21.9242 97.0999 24.6229 94.7407 27.2056 92.5697C29.1438 90.9432 29.713 89.0112 26.9453 87.7171C22.9153 85.8318 16.6883 86.8487 12.4529 87.6591C11.4665 87.8487 11.8852 89.2121 12.8715 89.0226C15.4448 88.5304 18.0432 88.2376 20.676 88.28C22.4197 88.3097 27.3844 88.1768 25.3521 92.0606C25.0839 92.574 23.4092 93.4961 22.8917 93.704C18.6532 95.4069 17.4488 89.0494 14.0382 87.9887C11.9542 87.3395 9.68359 88.8684 8.53888 90.2856C6.38744 92.953 6.72772 96.3559 7.11347 99.4477C7.2248 100.342 8.79448 100.353 8.68157 99.4477Z" fill="black"/>
<path d="M8.72461 100.057C10.0779 98.9071 11.486 97.8181 12.9836 96.821C14.4482 95.8451 16.0837 94.6231 17.9576 94.4675C18.9533 94.3855 18.9643 92.9711 17.9576 93.0532C14.0483 93.3771 10.3429 96.7404 7.61596 99.0571C6.87896 99.6822 7.98917 100.681 8.72461 100.057Z" fill="black"/>
<path d="M21.8391 107.989C21.2338 106.112 21.1413 104.231 22.1982 102.393C23.5625 100.019 27.823 100.014 29.7659 101.776C30.9828 102.881 31.7151 104.479 33.2032 105.334C35.5444 106.681 37.7163 105.33 39.1213 103.463C44.8276 95.8895 32.3078 97.0591 27.5925 98.5329C26.6438 98.8299 27.0515 100.196 28.0096 99.8977C30.4888 99.1212 33.0448 98.67 35.6777 98.8072C37.9185 98.9246 38.9362 99.4974 38.3749 101.821C37.7037 104.6 33.9324 103.596 32.1055 102.13C30.2285 100.625 29.1622 98.8086 26.349 98.5753C20.696 98.1029 19.1122 104.599 20.3275 108.365C20.6082 109.237 22.1229 108.866 21.8391 107.989Z" fill="black"/>
<path d="M20.4914 107.969C20.4036 108.912 20.5071 109.693 20.8207 110.591C20.9807 111.047 21.5091 111.224 21.9717 111.014C23.9225 110.133 25.0421 108.451 27.1433 107.683C29.0329 106.992 30.9758 106.548 32.707 105.543C33.5522 105.053 32.7666 103.828 31.9151 104.322C30.1212 105.362 28.0717 105.773 26.1366 106.532C24.1373 107.316 23.0506 108.946 21.1798 109.794C21.5656 109.935 21.9498 110.075 22.3324 110.216C22.0674 109.456 21.9858 108.764 22.0595 107.969C22.1458 107.063 20.5761 107.068 20.4914 107.969Z" fill="black"/>
<path d="M19.8621 120.718C19.3949 118.558 17.8158 117.203 16.152 115.68C14.2907 113.975 12.4466 111.865 10.1038 110.666C6.75749 108.95 2.53929 110.059 1.04802 113.347C0.119707 115.394 0.301608 117.873 0.243588 120.033C0.218498 121.036 -0.145302 122.729 1.02764 123.379C2.0422 123.942 2.94386 123.382 3.66362 122.754C6.9833 119.856 8.26915 115.347 14.2389 116.489C15.2237 116.678 15.6455 115.315 14.656 115.125C12.0169 114.62 9.6334 115.094 7.42551 116.521C6.4031 117.182 5.55005 118.027 4.75659 118.902C4.17483 119.545 3.74203 120.505 3.06931 121.034C2.00927 121.867 2.03279 121.893 1.79758 120.566C1.07625 116.47 3.11165 108.929 9.3135 111.886C11.1388 112.758 12.6975 114.541 14.1292 115.847C15.8305 117.397 17.8644 118.849 18.3489 121.094C18.5418 121.986 20.0535 121.607 19.8621 120.718Z" fill="black"/>
<path d="M10.6939 111.801C12.3733 111.909 14.0528 112.017 15.7322 112.126C17.0118 112.208 19.8704 111.936 20.5588 113.223C20.9979 114.042 22.3527 113.325 21.9136 112.509C21.2895 111.347 20.0335 111.04 18.6881 110.908C16.038 110.645 13.3518 110.557 10.6939 110.386C9.68562 110.321 9.69032 111.737 10.6939 111.801Z" fill="black"/>
<path d="M18.1499 121.477C19.0312 122.356 19.4687 123.44 19.4561 124.622C19.4483 125.533 21.0164 125.533 21.0242 124.622C21.0399 123.063 20.4143 121.629 19.2585 120.477C18.5796 119.799 17.474 120.802 18.1499 121.477Z" fill="black"/>
<path d="M3.03706 143.225C2.73127 141.727 1.54421 137.508 2.38315 135.972C4.32918 132.405 8.79203 137.051 10.3664 138.457C13.0479 140.853 14.4027 144.64 17.9075 146.195C18.8107 146.594 19.6057 145.375 18.6994 144.973C15.5945 143.597 14.2381 140.026 11.8796 137.816C10.1155 136.164 7.46384 133.524 4.8937 132.911C-1.25173 131.448 0.979693 140.929 1.52383 143.601C1.7073 144.493 3.21896 144.116 3.03706 143.225Z" fill="black"/>
<path d="M4.17838 144.142C5.92838 141.851 8.29935 140.119 11.1125 138.986C12.033 138.617 11.2348 137.397 10.3206 137.765C7.25656 138.998 4.72564 140.94 2.82511 143.428C2.25118 144.179 3.60916 144.888 4.17838 144.142Z" fill="black"/>
<path d="M5.09857 133.952C9.54417 133.429 14.4414 132.293 18.8948 133.118C19.8796 133.3 20.2999 131.938 19.3104 131.754C14.6797 130.896 9.7198 131.993 5.09857 132.538C4.11223 132.655 4.09812 134.069 5.09857 133.952Z" fill="black"/>
<path d="M20.5133 141.75C20.9006 136.142 19.8108 130.52 26.0628 127.273C31.4916 124.454 36.8546 130.813 41.2374 133.384C41.7628 133.693 42.3884 133.28 42.4182 132.773C42.5766 129.965 43.7449 122.835 40.0614 121.257C36.4892 119.725 30.9898 122.817 28.2551 124.532C27.4334 125.048 28.2159 126.276 29.047 125.754C31.0243 124.512 35.4119 121.753 38.0981 122.36C42.0121 123.241 40.985 130.392 40.8501 132.773C41.2437 132.57 41.6357 132.366 42.0293 132.162C36.6131 128.984 32.1894 122.536 25.2709 126.053C18.4089 129.54 19.3764 135.502 18.9452 141.75C18.8825 142.66 20.4506 142.657 20.5133 141.75Z" fill="black"/>
<path d="M34.7117 128.833C29.653 130.953 27.3448 135.561 23.2473 138.708C21.5851 139.985 19.7991 140.732 19.1232 142.717C18.267 145.226 18.6732 148.397 18.5368 150.994C18.4881 151.903 20.0562 151.902 20.1049 150.994C20.2319 148.614 19.8132 145.375 20.6333 143.094C21.2747 141.319 24.4438 139.736 25.8786 138.384C29.0211 135.424 31.2274 131.845 35.5036 130.055C36.4178 129.671 35.6213 128.451 34.7117 128.833Z" fill="black"/>
<path d="M19.6813 142.46C19.2767 145.02 19.0932 147.577 19.1591 150.163C19.1826 151.071 20.7272 151.075 20.7272 150.163V149.649C20.7257 148.74 19.1575 148.739 19.1591 149.649V150.163H20.7272C20.6645 147.708 20.8103 145.268 21.193 142.837C21.3341 141.946 19.824 141.561 19.6813 142.46Z" fill="black"/>
<path d="M20.5452 141.604C20.6158 144.188 20.6863 146.77 20.7569 149.353C20.7804 150.262 22.3485 150.265 22.325 149.353C22.2544 146.77 22.1839 144.188 22.1133 141.604C22.0882 140.696 20.5201 140.692 20.5452 141.604Z" fill="black"/>
<path d="M22.2941 171.48C20.7855 164.664 18.5792 156.943 22.2799 150.498C24.0111 147.483 29.6485 140.583 32.6263 147.185C33.9341 150.085 33.7005 154.256 34.0235 157.391C34.1176 158.289 35.6873 158.298 35.5916 157.391C35.0945 152.568 35.0287 138.087 25.4554 144.406C15.8021 150.776 18.8176 162.977 20.7824 171.856C20.9784 172.747 22.4916 172.369 22.2941 171.48Z" fill="black"/>
<path d="M1.11549 168.04C4.57943 174.64 13.7842 176.364 16.5143 183.491C18.2015 187.891 18.3019 192.933 18.3897 197.546C18.4618 201.263 17.9114 204.953 19.9986 208.309C20.4925 209.103 21.849 208.39 21.3534 207.595C18.672 203.287 20.0864 196.887 19.6693 192.087C19.3604 188.526 18.9966 184.758 17.3187 181.474C14.137 175.244 5.68651 173.456 2.46877 167.326C2.03754 166.504 0.685832 167.222 1.11549 168.04Z" fill="black"/>
<path d="M17.2161 186.548C19.7768 190.349 21.1301 194.463 21.0297 198.921C20.9435 202.693 20.1139 206.386 20.3303 210.172C20.3837 211.077 21.9518 211.084 21.8984 210.172C21.635 205.58 22.9287 201.04 22.5304 196.453C22.1995 192.636 20.7631 189.089 18.5694 185.834C18.0456 185.058 16.6892 185.768 17.2161 186.548Z" fill="black"/>
<path d="M0.772468 168.12C-0.685868 176.58 -0.132327 185.254 2.88627 193.405C5.73708 201.111 12.977 206.433 20.2514 210.827C21.0919 211.335 21.8776 210.11 21.0433 209.607C13.5839 205.099 6.65599 199.787 3.97454 191.827C1.42637 184.26 0.940255 176.295 2.28569 168.496C2.43779 167.605 0.927711 167.222 0.772468 168.12Z" fill="black"/>
<path d="M2.18264 168.28C3.23484 163.324 4.65242 158.472 6.44634 153.694C5.96807 153.749 5.48979 153.806 5.01309 153.862C8.29044 157.921 11.5537 161.999 14.6711 166.159C16.3286 168.375 17.9657 170.642 18.1068 173.411C18.2401 176.005 17.3635 178.63 17.2961 181.237C17.2726 182.148 18.8407 182.148 18.8642 181.237C18.9991 176.076 20.5876 172.136 17.4733 167.43C14.1897 162.471 10.133 157.813 6.36637 153.148C5.96807 152.653 5.16049 152.711 4.93468 153.316C3.14076 158.097 1.72318 162.948 0.670978 167.904C0.482805 168.793 1.9929 169.174 2.18264 168.28Z" fill="black"/>
<path d="M18.4688 183.44C20.1467 178.624 21.4106 173.353 24.3367 169.006C27.2549 164.669 31.6833 161.32 36.6134 158.955C38.9891 157.817 41.5451 156.794 44.167 156.207C46.4674 155.691 48.9999 155.395 51.0478 156.985C52.0561 157.766 52.6693 158.95 53.3781 159.94C53.7967 160.527 54.1982 161.138 54.7094 161.668C55.1234 162.099 56.8499 163.017 57.0051 163.567C57.7735 166.286 54.7517 164.884 53.5678 164.737C52.3337 164.584 51.109 164.565 49.8686 164.651C46.1428 164.914 43.6103 165.625 42.6114 168.957C41.0653 174.121 40.2044 179.518 38.7648 184.723C37.3488 189.837 36.2245 195.161 33.1808 199.733C30.1167 204.337 25.6617 207.908 20.3976 210.369C19.5022 210.788 20.2941 212.008 21.1895 211.59C26.3297 209.188 30.7189 205.75 33.8959 201.364C37.457 196.452 38.7241 190.711 40.2765 185.098C41.2393 181.617 42.1708 178.128 42.9893 174.616C43.3625 173.007 43.4017 170.83 44.1246 169.334C45.6551 166.16 48.6439 165.878 51.9652 166.018C53.8736 166.099 60.6227 168.335 59.0797 163.922C58.4493 162.116 55.9027 160.791 54.7313 159.225C53.422 157.477 52.4325 155.677 50.1478 154.825C45.8072 153.209 40.1903 155.716 36.3547 157.489C31.4982 159.732 27.0824 162.9 23.9431 166.956C20.2659 171.704 18.8546 177.619 16.9571 183.064C16.6529 183.935 18.1677 184.307 18.4688 183.44Z" fill="black"/>
<path d="M34.6324 159.736C37.2982 158.371 42.4729 158.941 45.0117 160.252C47.3874 161.477 48.3376 163.882 50.0375 165.7C50.6882 166.396 51.7922 165.392 51.1461 164.701C48.7391 162.124 47.7982 159.448 43.9689 158.312C41.0052 157.434 36.6239 157.091 33.8405 158.514C32.9639 158.964 33.7527 160.186 34.6324 159.736Z" fill="black"/>
<path d="M32.7302 128.712C33.3418 128.534 33.682 128.138 33.6946 127.556C33.704 127.121 33.1818 126.722 32.702 126.875C31.2468 127.334 29.8558 127.925 28.5449 128.66C27.6903 129.139 28.4759 130.364 29.3368 129.882C30.5348 129.21 31.7862 128.658 33.1191 128.238C32.7882 128.01 32.4573 127.784 32.1265 127.556C32.1892 127.487 32.2503 127.418 32.3131 127.348C31.3581 127.628 31.7674 128.995 32.7302 128.712Z" fill="black"/>
<path d="M11.4854 112.279C9.86247 112.23 8.31947 112.529 6.84076 113.125C5.92186 113.495 6.71845 114.716 7.63265 114.347C8.85576 113.853 10.151 113.652 11.4854 113.693C12.4953 113.725 12.4937 112.31 11.4854 112.279Z" fill="black"/>
<path d="M6.78011 134.429C5.05988 135.541 4.04531 137.228 4.01865 139.145C4.00454 140.055 5.57266 140.055 5.58677 139.145C5.60559 137.756 6.31124 136.464 7.57201 135.65C8.38429 135.125 7.6018 133.897 6.78011 134.429Z" fill="black"/>
<path d="M8.97289 165.152C10.4014 169.034 11.2216 172.994 11.4191 177.083C11.4631 177.99 13.0312 177.995 12.9873 177.083C12.7834 172.868 11.9586 168.782 10.4861 164.775C10.1694 163.916 8.65457 164.285 8.97289 165.152Z" fill="black"/>
<path d="M29.1944 100.571C27.5369 101.35 26.1695 102.483 25.133 103.882C24.5716 104.64 25.928 105.35 26.4862 104.596C27.3785 103.395 28.5687 102.459 29.9847 101.793C30.8801 101.371 30.0882 100.151 29.1944 100.571Z" fill="black"/>
<path d="M14.0801 89.0239C12.8209 90.0267 11.7922 91.226 11.0269 92.5739C10.5675 93.3829 11.9208 94.0985 12.3802 93.2881C13.0906 92.0364 14.022 90.9545 15.1887 90.0239C15.9461 89.4199 14.8328 88.4228 14.0801 89.0239Z" fill="black"/>
<path d="M16.7493 39.608L17.2181 39.1851C17.9332 38.5416 16.8245 37.5402 16.1095 38.1851L15.6406 38.608C14.9256 39.253 16.0342 40.2529 16.7493 39.608Z" fill="black"/>
<path d="M28.8513 50.3845H29.3201C30.3285 50.3845 30.33 48.9702 29.3201 48.9702H28.8513C27.8414 48.9702 27.8398 50.3845 28.8513 50.3845Z" fill="black"/>
<path d="M30.257 48.9702H29.3193C28.311 48.9702 28.3094 50.3845 29.3193 50.3845H30.257C31.2669 50.3845 31.2685 48.9702 30.257 48.9702Z" fill="black"/>
<path d="M30.7257 46.5795C31.7356 46.5795 31.7371 45.1651 30.7257 45.1651C29.7159 45.1651 29.7143 46.5795 30.7257 46.5795Z" fill="black"/>
<path d="M29.32 47.4254H29.7888C30.7971 47.4254 30.7986 46.0111 29.7888 46.0111H29.32C28.3101 46.0111 28.3086 47.4254 29.32 47.4254Z" fill="black"/>
<path d="M37.2875 44.0428C38.2973 44.0428 38.2989 42.6285 37.2875 42.6285C36.2793 42.6285 36.2777 44.0428 37.2875 44.0428Z" fill="black"/>
<path d="M12.6543 4.39729C12.8126 4.67875 12.971 4.95878 13.1294 5.24024C13.5888 6.05065 14.9404 5.33641 14.4842 4.526C14.3242 4.24596 14.1658 3.96451 14.0075 3.68447C13.5496 2.87264 12.1964 3.58688 12.6543 4.39729Z" fill="black"/>
</svg>
